<svg fill="none" height="141" viewBox="0 0 28 141" width="28" xmlns="http://www.w3.org/2000/svg" xmlns:xlink="http://www.w3.org/1999/xlink"><clipPath id="a"><path d="m0 0h141v28h-141z" transform="matrix(0 1 -1 0 28 0)"/></clipPath><g clip-path="url(#a)"><path d="m10.9961 132.109h5l-2.5 8.889z" fill="#8e8ea0"/><path d="m13.4922 0v91.0119 45.5481" stroke="#8e8ea0" stroke-miterlimit="16"/><path d="m25 90.581v-1.05h-8.5167v1.05zm-6.9534-3.5106c0-.3733-.2566-.6417-.6183-.6417s-.6183.2684-.6183.6417c0 .385.2566.6417.6183.6417s.6183-.2567.6183-.6417zm6.9534.525v-1.0383h-5.9967v1.0383zm.14-5.8898c0-1.5866-1.19-2.5083-2.6717-2.5083h-.9333c-1.5283 0-2.6717.9567-2.6717 2.4967 0 .8983.4083 1.575.98 1.9366h-3.36v1.0384h8.5167v-.9917h-.8867c.5367-.2567 1.0267-1.0033 1.0267-1.9717zm-.8517.21c0 1.0967-.8283 1.715-1.9133 1.715h-.805c-1.155 0-1.855-.7933-1.855-1.7266 0-1.0734.8283-1.6567 1.8667-1.6567h.84c1.0383 0 1.8666.5017 1.8666 1.6683zm.7117-4.3588v-5.1566h-.8983v4.0833h-7.2684v1.0733zm0-6.665v-5.1567h-.8983v4.0834h-7.2684v1.0733zm0-7.8872v-1.19l-8.1667-2.8001v1.0617l7.0817 2.3334-7.0817 2.345v1.0616zm0-5.3062v-1.015h-6.1017l4.13-2.0883v-1.0034l-4.13-2.0883h6.1017v-1.015h-8.1667v.9916l5.2267 2.6134-5.2267 2.6133v.9917z" fill="#191927"/></g></svg>